<svg xmlns="http://www.w3.org/2000/svg" width="65" height="75" viewBox="0 0 65 75">
    <defs>
        <linearGradient id="prefix__a" x1="29.234%" x2="219.151%" y1="50%" y2="50%">
            <stop offset=".07%" stop-color="#FFF0D5"/>
            <stop offset="51.12%" stop-color="#FFDFFF"/>
            <stop offset="100%" stop-color="#D9CEFF"/>
        </linearGradient>
    </defs>
    <g fill="none">
        <path fill="url(#prefix__a)" d="M40.38 13.089C37.259 5.374 29.703-.054 20.893 0 9.652.07.41 9.183.137 20.477c-.134 5.572 1.892 10.667 5.296 14.5 2.713 3.054 4.075 7.078 3.938 11.171-.019.544-.021 1.092-.008 1.644C9.723 62.646 22.347 75.009 37.13 75c15.322-.01 27.74-12.497 27.74-27.899 0-11.29-6.672-21.013-16.27-25.404-3.74-1.711-6.67-4.782-8.218-8.608z"/>
        <path fill="#590BB2" d="M61.648 12.937v37.244c0 1.213-.98 2.197-2.186 2.197H5.538c-1.207 0-2.186-.984-2.186-2.197V12.937c0-1.213.98-2.197 2.186-2.197h53.924c1.207 0 2.186.984 2.186 2.197z" opacity=".1"/>
        <path fill="#FFA052" d="M41.73 9.785c-.193 0-.378-.078-.514-.215L39.61 7.956c-.285-.286-.285-.75 0-1.036l1.606-1.614c.136-.137.321-.214.515-.214.193 0 .378.077.515.214l1.606 1.614c.137.138.213.324.213.518 0 .195-.076.38-.213.518L42.246 9.57c-.137.137-.322.215-.515.215zm-.574-2.347l.575.578.575-.578-.575-.578-.575.578z"/>
        <path fill="#C182F9" d="M50.87 63.938c-.193 0-.378-.078-.515-.215l-1.605-1.614c-.285-.286-.285-.75 0-1.036l1.605-1.614c.285-.286.746-.286 1.03 0l1.607 1.614c.136.138.213.324.213.518 0 .195-.077.38-.213.518l-1.606 1.614c-.137.137-.322.215-.515.215zm-.575-2.347l.576.578.575-.578-.575-.578-.576.578z"/>
        <path fill="#FFE783" d="M10.739 69.908c-.403 0-.729-.328-.729-.732 0-.486-.393-.882-.877-.882-.403 0-.729-.328-.729-.732 0-.405.326-.733.729-.733.483 0 .877-.395.877-.881 0-.405.326-.733.729-.733.402 0 .728.328.728.733 0 .486.394.881.877.881.403 0 .73.328.73.733 0 .404-.327.732-.73.732-.483 0-.877.396-.877.882 0 .404-.326.732-.728.732z"/>
        <path fill="#C182F9" d="M17.054 63.112c-.403 0-.729-.328-.729-.733 0-.486-.393-.881-.877-.881-.402 0-.729-.328-.729-.733 0-.404.327-.732.73-.732.483 0 .876-.396.876-.882 0-.404.326-.732.729-.732.402 0 .729.328.729.732 0 .486.393.882.877.882.402 0 .729.328.729.732 0 .405-.327.733-.73.733-.483 0-.876.395-.876.881 0 .405-.327.733-.73.733z"/>
        <path fill="#AFABC6" d="M40.765 66.105L24.235 66.105 26.389 57.52 27.541 52.935 37.459 52.935 38.611 57.52z"/>
        <path fill="#8E8CA8" d="M38.611 57.52L26.389 57.52 27.541 52.935 37.459 52.935z"/>
        <path fill="#590BB2" d="M40.765 66.836h-16.53c-.225 0-.437-.104-.575-.282-.138-.178-.187-.41-.132-.63l2.602-10.362c.098-.393.494-.63.885-.531.39.099.626.497.528.889l-2.373 9.451h14.66l-2.394-9.535c-.098-.393.138-.79.529-.89.39-.098.786.139.884.531l2.623 10.448c.055.219.006.45-.132.629-.138.178-.35.282-.575.282z"/>
        <path fill="#F5F4F9" d="M61.648 16.013v37.244c0 1.213-.98 2.197-2.186 2.197H5.538c-1.207 0-2.186-.984-2.186-2.197V16.013c0-1.213.98-2.197 2.186-2.197h53.924c1.207 0 2.186.984 2.186 2.197z"/>
        <path fill="#FFBE92" d="M59.462 13.816H46.928v41.638h12.534c1.207 0 2.186-.984 2.186-2.197V16.013c0-1.213-.98-2.197-2.186-2.197z"/>
        <path fill="#FFA052" d="M58.952 27.754l-1.048-3.699c-.089-.315-.376-.533-.701-.533h-3.556c-.325 0-.612.218-.701.533l-1.048 3.699c-1.47.362-2.852.943-4.111 1.71l-3.344-1.87c-.284-.16-.64-.11-.87.122l-2.514 2.528c-.23.232-.28.588-.122.875l1.862 3.36c-.763 1.266-1.343 2.656-1.703 4.13l-3.68 1.056c-.314.089-.53.376-.53.704v3.574c0 .327.216.614.53.705l3.68 1.053c.246 1.012.598 1.983 1.04 2.902h10.619c-2.512-1.052-4.278-3.541-4.278-6.447 0-3.857 3.11-6.983 6.948-6.983 2.727 0 5.085 1.578 6.223 3.875V28.706c-.857-.401-1.76-.72-2.696-.952z"/>
        <path fill="#FF8736" d="M58.952 27.754l-1.048-3.699c-.089-.315-.376-.533-.701-.533h-3.556c-.325 0-.612.218-.701.533l-1.048 3.699c-1.47.362-2.852.943-4.111 1.71l-3.344-1.87c-.284-.16-.64-.11-.87.122l-2.514 2.528c-.23.232-.28.588-.122.875l1.862 3.36c-.763 1.266-1.343 2.656-1.703 4.13l-3.68 1.056c-.314.089-.53.376-.53.704v3.574c0 .327.216.614.53.705l3.68 1.053c.246 1.012.598 1.983 1.04 2.902h10.619c-2.512-1.052-4.278-3.541-4.278-6.447 0-3.857 3.11-6.983 6.948-6.983 2.727 0 5.085 1.578 6.223 3.875V28.706c-.857-.401-1.76-.72-2.696-.952z"/>
        <path fill="#C182F9" d="M61.648 20.873v-4.86c0-1.213-.979-2.197-2.186-2.197H5.538c-1.207 0-2.186.984-2.186 2.198v4.859h58.296z"/>
        <path fill="#590BB2" d="M61.648 21.605H3.352c-.403 0-.729-.328-.729-.732 0-.405.326-.733.729-.733h58.296c.403 0 .729.328.729.733 0 .404-.326.732-.729.732z"/>
        <path fill="#CECAE0" d="M3.352 48.073v5.184c0 1.214.979 2.197 2.186 2.197h53.924c1.207 0 2.186-.983 2.186-2.197v-5.184H3.352z"/>
        <g fill="#590BB2">
            <path d="M58.944 35.768H5.386c-.402 0-.728-.328-.728-.732 0-.405.326-.733.728-.733h53.558c.403 0 .729.328.729.733 0 .404-.326.732-.729.732zM40.943 53.799H18.81c-.402 0-.729-.328-.729-.732 0-.405.327-.733.73-.733h22.132c.403 0 .729.328.729.733 0 .404-.326.732-.729.732zM6.279 5.05c-.403 0-.729-.327-.729-.732v-.021c0-.405.326-.733.729-.733.402 0 .728.328.728.733v.021c0 .405-.326.733-.728.733zM9.095 5.05c-.402 0-.729-.327-.729-.732v-.021c0-.405.327-.733.73-.733.402 0 .728.328.728.733v.021c0 .405-.326.733-.729.733zM11.911 5.05c-.402 0-.728-.327-.728-.732v-.021c0-.405.326-.733.728-.733.403 0 .73.328.73.733v.021c0 .405-.327.733-.73.733z" transform="translate(2.623 13.037)"/>
            <path d="M56.839 43.15H2.915C1.308 43.15 0 41.834 0 40.22V2.977C0 1.36 1.308.047 2.915.047h53.924c1.607 0 2.914 1.314 2.914 2.93v4.859c0 .404-.326.732-.728.732-.403 0-.729-.328-.729-.732v-4.86c0-.807-.654-1.464-1.457-1.464H2.915c-.804 0-1.458.657-1.458 1.465V40.22c0 .808.654 1.465 1.458 1.465h53.924c.803 0 1.457-.657 1.457-1.465V11.87c0-.405.326-.732.729-.732.402 0 .728.327.728.732v28.35c0 1.615-1.307 2.93-2.914 2.93z" transform="translate(2.623 13.037)"/>
        </g>
        <path fill="#DDD9E4" d="M33.04 40.176H8.74c-.404 0-.73-.328-.73-.733 0-.405.326-.734.73-.734h24.3c.404 0 .73.329.73.734 0 .405-.326.733-.73.733z"/>
        <path fill="#FFBE92" d="M24.296 34.025H8.74c-.404 0-.73-.328-.73-.733 0-.406.326-.734.73-.734h15.556c.403 0 .73.328.73.734 0 .405-.327.733-.73.733z"/>
        <path fill="#DDD9E4" d="M33.04 43.086H8.74c-.404 0-.73-.328-.73-.733 0-.405.326-.734.73-.734h24.3c.404 0 .73.329.73.734 0 .405-.326.733-.73.733z"/>
        <path fill="#B557FF" d="M10.656 29.658c-.186 0-.373-.072-.515-.215L8.387 27.68c-.285-.286-.285-.75 0-1.036l1.754-1.763c.284-.286.746-.286 1.03 0 .285.286.285.75 0 1.036l-1.238 1.245 1.238 1.245c.285.287.285.75 0 1.036-.142.143-.329.215-.515.215zM17.471 29.658c-.186 0-.373-.072-.515-.215-.285-.286-.285-.75 0-1.036l1.239-1.245-1.239-1.245c-.285-.286-.285-.75 0-1.036.284-.286.746-.286 1.03 0l1.754 1.763c.285.286.285.75 0 1.036l-1.754 1.763c-.142.143-.328.215-.515.215zM13.072 29.658c-.121 0-.244-.03-.357-.095-.35-.199-.474-.646-.276-.998l1.98-3.526c.198-.352.643-.477.993-.278.35.2.475.646.277.998l-1.981 3.526c-.134.239-.381.373-.636.373z"/>
        <path fill="#FFE783" d="M50.433 43.086h-2.332c-.241 0-.437-.196-.437-.439v-8.916c0-.243.196-.44.437-.44h2.332c.242 0 .438.197.438.44v8.916c0 .243-.196.44-.438.44zM45.666 43.086h-2.332c-.242 0-.437-.196-.437-.439v-5.516c0-.243.195-.44.437-.44h2.332c.241 0 .437.197.437.44v5.516c0 .243-.196.44-.437.44zM55.2 43.086H52.87c-.241 0-.437-.196-.437-.439V31.171c0-.242.196-.439.437-.439h2.332c.241 0 .437.197.437.44v11.475c0 .243-.196.44-.437.44z"/>
        <circle cx="40.186" cy="25.485" r="1" fill="#C182F9"/>
        <circle cx="37.722" cy="25.485" r="1" fill="#C182F9"/>
        <circle cx="35.257" cy="25.485" r="1" fill="#C182F9"/>
    </g>
</svg>
