<svg xmlns="http://www.w3.org/2000/svg" width="20" height="20" viewBox="0 0 20 20">
    <g fill="#FFF">
        <path d="M14.75 6.5c-.367.217-.768.371-1.186.455-.356-.373-.849-.584-1.364-.582-1.015-.008-1.846.803-1.864 1.818 0 .14.018.281.05.418-1.494-.07-2.89-.767-3.845-1.918-.163.275-.251.589-.255.909 0 .617.314 1.192.832 1.527-.296-.01-.586-.089-.845-.232v.023c-.003.887.625 1.65 1.495 1.818-.274.073-.562.084-.84.032.25.751.948 1.262 1.74 1.273-.659.512-1.47.792-2.304.795-.152 0-.304-.009-.455-.027.856.541 1.847.828 2.86.827 2.886.053 5.268-2.244 5.321-5.13l.001-.092v-.237c.356-.26.664-.582.91-.95-.342.15-.704.248-1.074.291.39-.228.682-.59.823-1.018z"/>
        <path d="M10 0C4.477 0 0 4.477 0 10s4.477 10 10 10 10-4.477 10-10S15.523 0 10 0zm0 19.09C4.98 19.09.91 15.02.91 10S4.98.91 10 .91s9.09 4.07 9.09 9.09-4.07 9.09-9.09 9.09z"/>
    </g>
</svg>
