<svg xmlns="http://www.w3.org/2000/svg" width="88" height="75" viewBox="0 0 88 75">
    <defs>
        <linearGradient id="prefix__a" x1="42.131%" x2="166.474%" y1="50%" y2="50%">
            <stop offset=".07%" stop-color="#FFF0D5"/>
            <stop offset="51.12%" stop-color="#FFDFFF"/>
            <stop offset="100%" stop-color="#D9CEFF"/>
        </linearGradient>
    </defs>
    <g fill="none">
        <path fill="url(#prefix__a)" d="M70.164 19.919c-4.073-1.596-7.514-4.509-9.618-8.361C57.007 5.08 50.159.688 42.289.688c-8.17 0-15.236 4.732-18.644 11.617-2.088 4.216-5.64 7.527-9.985 9.29C7.241 24.2 1.852 30.153.142 39.461c-.188 1.021-.19 2.071-.003 3.092 2.655 14.443 14.163 20.813 24.636 19.124 5.865-.946 11.803 1.02 16.15 5.091 8.84 8.276 23.012 10.871 36.768 2 1.612-1.04 3.774-3.22 4.807-4.842C94.354 45.32 85.573 25.957 70.164 19.92z"/>
        <path fill="#590BB2" d="M77.428 10.92H63.433V4.348c0-1.717-1.385-3.11-3.093-3.11H25.428c-1.708 0-3.092 1.393-3.092 3.11v10.063H7.903c-.71 0-1.286.586-1.286 1.308v12.258c0 .722.576 1.307 1.286 1.307h14.433v6.887H7.903c-.71 0-1.286.585-1.286 1.307v22.69c0 .722.576 1.307 1.286 1.307h14.433v5.852c0 1.717 1.384 3.11 3.092 3.11H60.34c1.708 0 3.093-1.393 3.093-3.11V52.049h6.322c.945 0 1.712-.779 1.712-1.74v-8.315c0-.96-.767-1.74-1.712-1.74h-6.322V31.32h13.995c.952 0 1.724-.776 1.724-1.734V12.654c0-.958-.772-1.734-1.724-1.734z" opacity=".1"/>
        <path fill="#F5F4F9" d="M63.433 7.976v62.979c0 1.717-1.385 3.11-3.093 3.11H25.428c-1.708 0-3.092-1.393-3.092-3.11V7.975c0-1.716 1.384-3.108 3.092-3.108h34.913c1.707 0 3.092 1.392 3.092 3.109z"/>
        <path fill="#E8E6ED" d="M63.433 46.473v11.795h-3.278c-.945 0-1.713-.779-1.713-1.74v-8.314c0-.962.768-1.741 1.713-1.741h3.278zM27.718 21.938v12.258c0 .722-.575 1.307-1.285 1.307h-4.097V20.63h4.097c.71 0 1.285.585 1.285 1.308zM27.718 43.697v22.69c0 .722-.575 1.308-1.285 1.308h-4.097V42.389h4.097c.71 0 1.285.586 1.285 1.308zM63.433 17.139v20.4h-6.912c-.952 0-1.725-.778-1.725-1.735V18.873c0-.957.773-1.734 1.725-1.734h6.912z"/>
        <path fill="#FFD5B8" d="M63.433 22.774V7.992c0-1.726-1.377-3.126-3.076-3.126H25.412c-1.7 0-3.076 1.4-3.076 3.126v14.782h41.097z"/>
        <path fill="#CECAE0" d="M55.136 9.153l1.373-4.287H29.26l1.374 4.287c.2.62.769 1.041 1.411 1.041h21.681c.642 0 1.212-.42 1.41-1.04z"/>
        <g fill="#590BB2">
            <path d="M32.413 7.084H10.732c-1.02 0-1.915-.66-2.23-1.64L7.13 1.156c-.146-.454.103-.94.555-1.087.451-.146.936.103 1.08.558l1.375 4.287c.084.264.323.442.593.442h21.68c.27 0 .509-.178.593-.442L34.38.627c.146-.455.63-.704 1.081-.558.452.146.7.633.555 1.087L34.64 5.444c-.314.98-1.21 1.64-2.228 1.64zM39.028 70.953H4.116c-2.18 0-3.952-1.782-3.952-3.973v-5.401c0-.478.385-.864.86-.864.474 0 .859.386.859.864v5.4c0 1.239 1.001 2.246 2.233 2.246h34.912c1.232 0 2.233-1.007 2.233-2.245V51.968c0-.477.385-.864.86-.864.474 0 .86.387.86.864V66.98c0 2.19-1.774 3.973-3.953 3.973zM42.12 40.496c-.474 0-.859-.387-.859-.864v-8.295c0-.477.385-.864.86-.864.474 0 .86.387.86.864v8.295c0 .477-.386.864-.86.864z" transform="translate(21.313 3.975)"/>
            <path d="M1.023 14.41c-.474 0-.86-.387-.86-.864V4.001C.164 1.81 1.938.027 4.117.027h34.912c2.18 0 3.952 1.783 3.952 3.974v6.195c0 .477-.385.864-.86.864-.474 0-.859-.387-.859-.864V4.001c0-1.238-1.002-2.245-2.233-2.245H4.116C2.884 1.756 1.883 2.763 1.883 4v9.545c0 .477-.385.864-.86.864zM1.023 36.688c-.474 0-.86-.387-.86-.864v-6.388c0-.477.386-.864.86-.864.475 0 .86.387.86.864v6.388c0 .477-.385.864-.86.864z" transform="translate(21.313 3.975)"/>
        </g>
        <ellipse cx="42.884" cy="35.102" fill="#FFA052" rx="7.698" ry="7.824"/>
        <path fill="#F5F4F9" d="M45.008 36.233c.592-.57.963-1.373.963-2.263 0-1.724-1.385-3.128-3.087-3.128-1.702 0-3.086 1.404-3.086 3.128 0 .89.37 1.693.962 2.263-.591.57-.962 1.373-.962 2.264 0 .477.385.864.86.864.474 0 .859-.387.859-.864 0-.772.613-1.4 1.367-1.4s1.368.628 1.368 1.4c0 .477.385.864.86.864.474 0 .859-.387.859-.864 0-.89-.371-1.693-.963-2.264zm-3.491-2.263c0-.772.613-1.4 1.367-1.4.755 0 1.368.628 1.368 1.4 0 .772-.613 1.4-1.368 1.4-.754 0-1.367-.628-1.367-1.4z"/>
        <path fill="#DDD9E4" d="M48.58 49.666H37.19c-.485 0-.877-.4-.877-.891 0-.492.392-.89.876-.89h11.39c.485 0 .877.398.877.89s-.392.89-.876.89z"/>
        <path fill="#C182F9" d="M45.5 52.969h-5.232c-.484 0-.876-.399-.876-.89 0-.492.392-.891.876-.891h5.233c.484 0 .876.399.876.89 0 .492-.392.891-.876.891z"/>
        <circle cx="45.777" cy="62.896" r="1" fill="#E2CCFF"/>
        <circle cx="42.885" cy="62.896" r="1" fill="#E2CCFF"/>
        <circle cx="39.992" cy="62.896" r="1" fill="#E2CCFF"/>
        <path fill="#FFE783" d="M69.755 55.677h-9.6c-.946 0-1.712-.779-1.712-1.74v-8.315c0-.96.766-1.74 1.712-1.74h9.6c.945 0 1.712.78 1.712 1.74v8.315c0 .96-.767 1.74-1.712 1.74z"/>
        <path fill="#590BB2" d="M69.755 56.541h-9.6c-1.418 0-2.572-1.168-2.572-2.604v-8.315c0-1.436 1.154-2.604 2.572-2.604h9.6c1.418 0 2.571 1.168 2.571 2.604v8.315c0 1.436-1.153 2.604-2.571 2.604zm-9.6-11.795c-.47 0-.853.393-.853.876v8.315c0 .483.383.876.853.876h9.6c.47 0 .852-.393.852-.876v-8.315c0-.483-.382-.876-.852-.876h-9.6z"/>
        <path fill="#FFC136" d="M63.79 52.743c-.142 0-.286-.036-.42-.112-.411-.236-.556-.767-.324-1.185l2.327-4.188c.232-.418.754-.566 1.166-.33.412.236.557.767.324 1.186L64.537 52.3c-.158.283-.448.442-.746.442z"/>
        <path fill="#FFA052" d="M26.433 32.912H7.903c-.71 0-1.286-.585-1.286-1.307V19.346c0-.722.576-1.307 1.286-1.307h18.53c.71 0 1.286.585 1.286 1.307v12.259c0 .722-.576 1.307-1.286 1.307z"/>
        <path fill="#590BB2" d="M26.433 33.776H7.903c-1.183 0-2.145-.974-2.145-2.171V19.346c0-1.197.962-2.171 2.145-2.171h18.53c1.183 0 2.145.974 2.145 2.171v12.259c0 1.197-.962 2.171-2.145 2.171zM7.903 18.903c-.235 0-.426.199-.426.443v12.259c0 .244.191.443.426.443h18.53c.235 0 .427-.199.427-.443V19.346c0-.244-.192-.443-.427-.443H7.903z"/>
        <path fill="#F5F4F9" d="M13.17 28.436c-.219 0-.438-.085-.605-.254l-2.058-2.092c-.334-.34-.334-.89 0-1.229l2.058-2.092c.334-.339.876-.339 1.21 0 .333.34.333.89 0 1.23l-1.454 1.476 1.453 1.478c.334.34.334.89 0 1.229-.166.17-.385.254-.604.254zM21.166 22.515c.219 0 .438.085.605.255l2.058 2.091c.334.34.334.89 0 1.23l-2.058 2.09c-.334.34-.876.34-1.21 0-.333-.339-.333-.889 0-1.228l1.454-1.477-1.453-1.477c-.334-.34-.334-.89 0-1.23.166-.17.385-.254.604-.254zM16.005 28.436c-.142 0-.287-.036-.42-.112-.41-.236-.556-.766-.324-1.184l2.325-4.183c.232-.418.753-.566 1.164-.33.412.236.557.766.325 1.184l-2.325 4.184c-.157.282-.446.441-.745.441z"/>
        <path fill="#FFC136" d="M26.433 65.103H7.903c-.71 0-1.286-.585-1.286-1.307v-22.69c0-.722.576-1.308 1.286-1.308h18.53c.71 0 1.286.586 1.286 1.308v22.69c0 .722-.576 1.307-1.286 1.307z"/>
        <path fill="#590BB2" d="M26.433 65.967H7.903c-1.183 0-2.145-.974-2.145-2.171v-22.69c0-1.198.962-2.172 2.145-2.172h9.721c.475 0 .86.387.86.864 0 .478-.385.864-.86.864h-9.72c-.236 0-.427.2-.427.444v22.69c0 .244.191.443.426.443h18.53c.235 0 .427-.199.427-.443v-22.69c0-.245-.192-.444-.427-.444h-4.097c-.475 0-.86-.386-.86-.864 0-.477.385-.864.86-.864h4.097c1.183 0 2.145.974 2.145 2.172v22.69c0 1.197-.962 2.171-2.145 2.171z"/>
        <path fill="#F5F4F9" d="M77.428 34.946H56.52c-.952 0-1.724-.776-1.724-1.733V16.28c0-.957.772-1.733 1.724-1.733h20.907c.952 0 1.724.776 1.724 1.733v16.932c0 .957-.772 1.733-1.724 1.733z"/>
        <path fill="#FFE783" d="M77.437 14.548h-5.844v20.398h5.844c.947 0 1.715-.78 1.715-1.742V16.29c0-.963-.768-1.743-1.715-1.743z"/>
        <path fill="#FFC136" d="M79.152 20.241v-3.95c0-.963-.768-1.743-1.715-1.743H56.51c-.947 0-1.714.78-1.714 1.743v3.95h24.355z"/>
        <path fill="#590BB2" d="M77.437 35.81H56.51c-1.419 0-2.574-1.169-2.574-2.606V16.29c0-1.438 1.155-2.607 2.574-2.607h20.926c1.42 0 2.574 1.17 2.574 2.607v3.95c0 .477-.385.864-.86.864-.474 0-.859-.387-.859-.864v-3.95c0-.485-.383-.88-.855-.88H56.51c-.471 0-.855.395-.855.88v16.913c0 .484.384.878.855.878h20.926c.472 0 .855-.394.855-.878v-8.175c0-.477.385-.864.86-.864.474 0 .86.387.86.864v8.175c0 1.437-1.156 2.606-2.575 2.606z"/>
        <path fill="#590BB2" d="M79.152 21.105H54.797c-.475 0-.86-.387-.86-.864s.385-.864.86-.864h24.355c.474 0 .86.387.86.864s-.386.864-.86.864z"/>
        <path fill="#DDD9E4" d="M68.147 30.877h-8.504c-.474 0-.857-.39-.857-.871s.383-.871.857-.871h8.504c.474 0 .858.39.858.871s-.384.871-.858.871zM63.518 27.26h-3.875c-.474 0-.857-.39-.857-.871s.383-.871.857-.871h3.875c.473 0 .857.39.857.87 0 .482-.384.872-.857.872z"/>
        <path fill="#F5F4F9" d="M22.18 52.85H12.156c-.473 0-.857-.39-.857-.87 0-.481.384-.871.857-.871h10.022c.473 0 .857.39.857.87 0 .481-.384.871-.857.871z"/>
        <path fill="#FFE783" d="M20.126 48.194H14.21c-.473 0-.857-.39-.857-.871 0-.48.384-.87.857-.87h5.916c.473 0 .857.39.857.87s-.384.87-.857.87z"/>
        <path fill="#F5F4F9" d="M22.18 55.942H12.156c-.473 0-.857-.39-.857-.87 0-.481.384-.87.857-.87h10.022c.473 0 .857.389.857.87 0 .48-.384.87-.857.87zM22.18 59.035H12.156c-.473 0-.857-.39-.857-.87 0-.482.384-.872.857-.872h10.022c.473 0 .857.39.857.871 0 .48-.384.87-.857.87z"/>
        <path fill="#C182F9" d="M79.497 60.074c-.23 0-.45-.092-.611-.256L77 57.901c-.331-.336-.331-.878 0-1.215l1.886-1.917c.161-.164.381-.256.611-.256.23 0 .45.092.611.256l1.886 1.917c.331.337.331.879 0 1.215l-1.886 1.917c-.162.164-.382.256-.611.256zm-.677-2.78l.677.688.677-.688-.677-.688-.677.688z"/>
        <path fill="#FFA052" d="M70.841 64.948c-.23 0-.45-.092-.611-.256l-1.886-1.917c-.331-.337-.331-.879 0-1.215l1.886-1.917c.161-.164.381-.256.611-.256.23 0 .45.092.611.256l1.886 1.917c.331.336.331.878 0 1.215l-1.886 1.917c-.162.164-.382.256-.611.256zm-.677-2.78l.677.687.677-.688-.677-.688-.677.688z"/>
        <path fill="#FFE783" d="M15.348 14.453c-.474 0-.86-.387-.86-.865 0-.578-.458-1.048-1.022-1.048-.474 0-.859-.387-.859-.864s.385-.864.86-.864c.563 0 1.022-.47 1.022-1.049 0-.477.385-.864.86-.864.474 0 .859.387.859.864 0 .579.458 1.049 1.022 1.049.475 0 .86.387.86.864s-.385.864-.86.864c-.564 0-1.022.47-1.022 1.048 0 .478-.385.865-.86.865z"/>
        <path fill="#C182F9" d="M18.491 5.625c-.474 0-.859-.387-.859-.864 0-.578-.459-1.048-1.023-1.048-.474 0-.859-.387-.859-.864s.385-.864.86-.864c.563 0 1.022-.47 1.022-1.049 0-.477.385-.864.86-.864.474 0 .859.387.859.864 0 .579.458 1.049 1.022 1.049.475 0 .86.387.86.864s-.385.864-.86.864c-.564 0-1.022.47-1.022 1.048 0 .478-.385.864-.86.864z"/>
    </g>
</svg>
