<svg xmlns="http://www.w3.org/2000/svg" width="20" height="20" viewBox="0 0 20 20">
    <g fill="#FFF">
        <circle cx="7.273" cy="7.273" r="1"/>
        <path d="M6.364 8.636H8.182V13.636H6.364z"/>
        <path d="M10 0C4.477 0 0 4.477 0 10s4.477 10 10 10 10-4.477 10-10S15.523 0 10 0zm0 19.09C4.98 19.09.91 15.02.91 10S4.98.91 10 .91s9.09 4.07 9.09 9.09-4.07 9.09-9.09 9.09z"/>
        <path d="M12.436 8.636c-1.363 0-1.527.81-1.527.81v-.81H9.091v5h1.818V10.91s0-.909.773-.909c.454 0 .59.405.59.91v2.726h1.819V10.91c0-1.423-.618-2.273-1.655-2.273z"/>
    </g>
</svg>
