<svg xmlns="http://www.w3.org/2000/svg" width="89" height="76" viewBox="0 0 89 76">
    <defs>
        <linearGradient id="prefix__a" x1="42.131%" x2="166.474%" y1="50%" y2="50%">
            <stop offset=".07%" stop-color="#FFF0D5"/>
            <stop offset="51.12%" stop-color="#FFDFFF"/>
            <stop offset="100%" stop-color="#D9CEFF"/>
        </linearGradient>
    </defs>
    <g fill="none">
        <path fill="url(#prefix__a)" d="M70.962 19.755c-4.12-1.61-7.6-4.55-9.728-8.438C57.654 4.778 50.729.347 42.77.347c-8.262 0-15.41 4.774-18.857 11.723-2.111 4.256-5.704 7.598-10.097 9.377C7.324 24.077 1.873 30.085.144 39.48c-.19 1.031-.193 2.09-.003 3.122 2.685 14.576 14.323 21.006 24.915 19.3 5.933-.954 11.938 1.031 16.335 5.14 8.94 8.353 23.272 10.972 37.185 2.018 1.63-1.05 3.817-3.25 4.862-4.887 11.988-18.78 3.107-38.322-12.476-44.417z"/>
        <path fill="#590BB2" d="M79.266 10.655V55c0 1.444-1.169 2.616-2.608 2.616H12.342c-1.44 0-2.608-1.172-2.608-2.616V10.655c0-1.444 1.168-2.616 2.608-2.616h64.316c1.44 0 2.608 1.172 2.608 2.616z" opacity=".1"/>
        <path fill="#C182F9" d="M61.01 70.182c-.222 0-.444-.085-.614-.255l-1.915-1.922c-.34-.34-.34-.893 0-1.233l1.915-1.922c.34-.34.89-.34 1.229 0l1.915 1.922c.34.34.34.893 0 1.233l-1.915 1.922c-.17.17-.392.255-.614.255zm-.686-2.793l.687.688.686-.688-.686-.689-.687.689z"/>
        <path fill="#FFA052" d="M69.604 72.456c-.223 0-.445-.085-.615-.255l-1.915-1.922c-.34-.34-.34-.893 0-1.233l1.915-1.922c.163-.164.384-.255.615-.255.23 0 .452.092.615.255l1.915 1.922c.163.163.254.385.254.616 0 .232-.091.454-.254.617l-1.915 1.922c-.17.17-.393.255-.615.255zm-.686-2.794l.686.689.686-.689-.686-.688-.686.688zM36.113 8.473c-.48 0-.87-.391-.87-.873 0-.578-.469-1.05-1.045-1.05-.48 0-.87-.39-.87-.871 0-.482.39-.872.87-.872.576 0 1.046-.471 1.046-1.05 0-.482.389-.872.869-.872s.87.39.87.872c0 .579.468 1.05 1.045 1.05.48 0 .87.39.87.872 0 .481-.39.872-.87.872-.577 0-1.046.47-1.046 1.05 0 .481-.389.872-.869.872z"/>
        <path fill="#AFABC6" d="M54.358 73.961L34.642 73.961 37.212 63.74 38.585 58.28 50.415 58.28 51.788 63.74z"/>
        <path fill="#8E8CA8" d="M51.788 63.74L37.212 63.74 38.585 58.28 50.415 58.28z"/>
        <path fill="#F5F4F9" d="M79.266 14.318v44.346c0 1.444-1.169 2.616-2.608 2.616H12.342c-1.44 0-2.608-1.172-2.608-2.616V14.318c0-1.444 1.168-2.616 2.608-2.616h64.316c1.44 0 2.608 1.172 2.608 2.616z"/>
        <path fill="#E8E6ED" d="M21.525 11.702L67.475 11.702 67.475 52.491 21.525 52.491z"/>
        <path fill="#C182F9" d="M26.393 55.806H15.5c-.288 0-.522-.234-.522-.523v-7.791c0-.29.234-.524.522-.524h10.893c.288 0 .522.235.522.524v7.79c0 .29-.234.524-.522.524z"/>
        <path fill="#D6B0FF" d="M24.582 55.806h-4.171v-5.129c0-.289.233-.523.521-.523h3.129c.288 0 .521.234.521.523v5.129z"/>
        <path fill="#C182F9" d="M42.095 55.806H31.202c-.288 0-.521-.234-.521-.523v-7.791c0-.29.233-.524.521-.524h10.893c.288 0 .522.235.522.524v7.79c0 .29-.234.524-.522.524z"/>
        <path fill="#D6B0FF" d="M40.285 55.806h-4.172v-5.129c0-.289.233-.523.521-.523h3.13c.287 0 .52.234.52.523v5.129z"/>
        <path fill="#C182F9" d="M57.798 55.806H46.905c-.288 0-.522-.234-.522-.523v-7.791c0-.29.234-.524.522-.524h10.893c.288 0 .521.235.521.524v7.79c0 .29-.233.524-.521.524z"/>
        <path fill="#D6B0FF" d="M55.987 55.806h-4.171v-5.129c0-.289.233-.523.521-.523h3.129c.288 0 .521.234.521.523v5.129z"/>
        <path fill="#C182F9" d="M73.5 55.806H62.607c-.288 0-.522-.234-.522-.523v-7.791c0-.29.234-.524.522-.524H73.5c.288 0 .522.235.522.524v7.79c0 .29-.234.524-.522.524z"/>
        <path fill="#D6B0FF" d="M71.69 55.806h-4.172v-5.129c0-.289.233-.523.521-.523h3.13c.287 0 .52.234.52.523v5.129z"/>
        <path fill="#FFA052" d="M79.266 20.104v-5.786c0-1.445-1.168-2.616-2.608-2.616H12.342c-1.44 0-2.608 1.171-2.608 2.616v5.786h69.532z"/>
        <path fill="#CECAE0" d="M9.734 52.491v6.173c0 1.445 1.168 2.616 2.608 2.616h64.316c1.44 0 2.608-1.171 2.608-2.616V52.49H9.734z"/>
        <g fill="#590BB2">
            <path d="M7.489 5.974c.48 0 .869-.39.869-.872v-.026c0-.481-.39-.872-.87-.872s-.868.39-.868.872v.026c0 .481.389.872.869.872zM10.848 5.974c.48 0 .87-.39.87-.872v-.026c0-.481-.39-.872-.87-.872s-.869.39-.869.872v.026c0 .481.39.872.87.872zM14.207 5.974c.48 0 .87-.39.87-.872v-.026c0-.481-.39-.872-.87-.872s-.869.39-.869.872v.026c0 .481.39.872.87.872z" transform="translate(8.865 10.814)"/>
            <path d="M67.793.016H3.477C1.56.016 0 1.58 0 3.504V47.85c0 1.923 1.56 3.488 3.477 3.488H27.85L25.1 62.274h-2.665c-.48 0-.869.39-.869.872s.39.872.87.872h26.398c.48 0 .87-.39.87-.872 0-.481-.39-.872-.87-.872H46.17l-1.916-7.62c-.117-.467-.59-.75-1.055-.632-.466.118-.748.592-.63 1.06l1.809 7.192H26.892l2.75-10.936h38.151c1.917 0 3.477-1.565 3.477-3.489V3.504c0-1.923-1.56-3.488-3.477-3.488zM3.477 1.76h64.316c.958 0 1.738.782 1.738 1.744v4.914H5.657c-.48 0-.87.39-.87.872 0 .481.39.872.87.872H69.53v30.643H1.738v-37.3c0-.962.78-1.745 1.739-1.745zm64.316 47.834H3.477c-.959 0-1.739-.783-1.739-1.744v-5.3h67.793v5.3c0 .961-.78 1.744-1.738 1.744z" transform="translate(8.865 10.814)"/>
        </g>
        <path fill="#C182F9" d="M26.393 32.99H15.5c-.288 0-.522-.234-.522-.523v-7.79c0-.29.234-.524.522-.524h10.893c.288 0 .522.234.522.523v7.791c0 .29-.234.523-.522.523z"/>
        <path fill="#D6B0FF" d="M24.582 32.99h-4.171v-5.128c0-.29.233-.523.521-.523h3.129c.288 0 .521.234.521.523v5.128z"/>
        <path fill="#C182F9" d="M42.095 32.99H31.202c-.288 0-.521-.234-.521-.523v-7.79c0-.29.233-.524.521-.524h10.893c.288 0 .522.234.522.523v7.791c0 .29-.234.523-.522.523z"/>
        <path fill="#D6B0FF" d="M40.285 32.99h-4.172v-5.128c0-.29.233-.523.521-.523h3.13c.287 0 .52.234.52.523v5.128z"/>
        <path fill="#C182F9" d="M57.798 32.99H46.905c-.288 0-.522-.234-.522-.523v-7.79c0-.29.234-.524.522-.524h10.893c.288 0 .521.234.521.523v7.791c0 .29-.233.523-.521.523z"/>
        <path fill="#D6B0FF" d="M55.987 32.99h-4.171v-5.128c0-.29.233-.523.521-.523h3.129c.288 0 .521.234.521.523v5.128z"/>
        <path fill="#C182F9" d="M73.5 32.99H62.607c-.288 0-.522-.234-.522-.523v-7.79c0-.29.234-.524.522-.524H73.5c.288 0 .522.234.522.523v7.791c0 .29-.234.523-.522.523z"/>
        <path fill="#D6B0FF" d="M71.69 32.99h-4.172v-5.128c0-.29.233-.523.521-.523h3.13c.287 0 .52.234.52.523v5.128z"/>
        <path fill="#C182F9" d="M26.393 44.398H15.5c-.288 0-.522-.234-.522-.523v-7.79c0-.29.234-.524.522-.524h10.893c.288 0 .522.234.522.523v7.79c0 .29-.234.524-.522.524z"/>
        <path fill="#D6B0FF" d="M24.582 44.398h-4.171v-5.129c0-.289.233-.523.521-.523h3.129c.288 0 .521.234.521.523v5.129z"/>
        <path fill="#C182F9" d="M42.095 44.398H31.202c-.288 0-.521-.234-.521-.523v-7.79c0-.29.233-.524.521-.524h10.893c.288 0 .522.234.522.523v7.79c0 .29-.234.524-.522.524z"/>
        <path fill="#D6B0FF" d="M40.285 44.398h-4.172v-5.129c0-.289.233-.523.521-.523h3.13c.287 0 .52.234.52.523v5.129z"/>
        <path fill="#C182F9" d="M57.798 44.398H46.905c-.288 0-.522-.234-.522-.523v-7.79c0-.29.234-.524.522-.524h10.893c.288 0 .521.234.521.523v7.79c0 .29-.233.524-.521.524z"/>
        <path fill="#D6B0FF" d="M55.987 44.398h-4.171v-5.129c0-.289.233-.523.521-.523h3.129c.288 0 .521.234.521.523v5.129z"/>
        <path fill="#C182F9" d="M73.5 44.398H62.607c-.288 0-.522-.234-.522-.523v-7.79c0-.29.234-.524.522-.524H73.5c.288 0 .522.234.522.523v7.79c0 .29-.234.524-.522.524z"/>
        <path fill="#D6B0FF" d="M71.69 44.398h-4.172v-5.129c0-.289.233-.523.521-.523h3.13c.287 0 .52.234.52.523v5.129z"/>
        <path fill="#FFE783" d="M26.498 5.755c-.48 0-.87-.39-.87-.872 0-.579-.469-1.05-1.046-1.05-.48 0-.869-.39-.869-.872 0-.481.39-.872.87-.872.576 0 1.046-.47 1.046-1.05 0-.481.389-.872.869-.872s.869.391.869.873c0 .578.47 1.05 1.046 1.05.48 0 .869.39.869.871 0 .482-.39.872-.87.872-.576 0-1.045.471-1.045 1.05 0 .482-.39.872-.87.872z"/>
    </g>
</svg>
