<svg xmlns="http://www.w3.org/2000/svg" width="110" height="76" viewBox="0 0 110 76">
    <defs>
        <linearGradient id="prefix__a" x1="34.359%" x2="162.826%" y1="50%" y2="50%">
            <stop offset=".07%" stop-color="#FFF0D5"/>
            <stop offset="51.12%" stop-color="#FFDFFF"/>
            <stop offset="100%" stop-color="#D9CEFF"/>
        </linearGradient>
    </defs>
    <g fill="none">
        <path fill="url(#prefix__a)" d="M103.763 19.358c-7.508-7.703-19.224-8.766-27.894-3.188-2.466 1.587-5.452 2.119-8.318 1.484-6.781-1.502-13.875-.476-19.917 2.795-4.062 2.199-9.01 1.816-12.8-.82-2.517-1.751-5.438-3.006-8.65-3.596-11.91-2.19-23.49 5.69-25.78 17.552-2.34 12.13 5.722 23.788 17.875 25.947 2.97.528 5.906.439 8.677-.175 4.498-.995 9.197.67 12.1 4.238 1.832 2.253 4.042 4.263 6.608 5.933 13.263 8.632 31.03 4.905 39.683-8.322l.028-.042c1.585-2.432 4.05-4.166 6.9-4.74 4.158-.837 8.122-2.873 11.335-6.106 8.459-8.514 8.53-22.365.153-30.96z"/>
        <path fill="#590BB2" d="M103.34 53.275V37.977c0-1.184-.962-2.144-2.15-2.144H90.66v-23.41c0-1.776-1.443-3.216-3.223-3.216H28.748c-1.78 0-3.223 1.44-3.223 3.216v16.98H8.809c-1.187 0-2.149.96-2.149 2.144v21.728h96.68z" opacity=".1"/>
        <path fill="#AFABC6" d="M67.764 73.771L48.421 73.771 50.954 63.764 52.291 58.482 63.895 58.482 65.231 63.764z"/>
        <path fill="#8E8CA8" d="M65.231 63.764L50.954 63.764 52.291 58.482 63.895 58.482z"/>
        <path fill="#F5F4F9" d="M87.437 61.407H28.748c-1.78 0-3.223-1.44-3.223-3.216V16.28c0-1.776 1.443-3.215 3.223-3.215h58.69c1.78 0 3.223 1.439 3.223 3.215V58.19c0 1.776-1.443 3.216-3.224 3.216z"/>
        <path fill="#FFBE92" d="M81.833 37.392h-47.48c-.356 0-.645-.288-.645-.643V21.257h48.77V36.75c0 .355-.289.643-.645.643z"/>
        <path fill="#DDD9E4" d="M62.66 42.405H39.773c-.593 0-1.074-.48-1.074-1.071 0-.592.48-1.072 1.074-1.072h22.885c.594 0 1.074.48 1.074 1.072 0 .591-.48 1.071-1.074 1.071zM62.66 46.69H39.773c-.593 0-1.074-.48-1.074-1.07 0-.592.48-1.072 1.074-1.072h22.885c.594 0 1.074.48 1.074 1.071 0 .592-.48 1.072-1.074 1.072z"/>
        <path fill="#FFBE92" d="M74.046 46.69h-3.55c-.593 0-1.074-.48-1.074-1.07 0-.592.481-1.072 1.075-1.072h3.549c.593 0 1.074.48 1.074 1.071 0 .592-.48 1.072-1.074 1.072z"/>
        <path fill="#C182F9" d="M90.66 21.257V16.28c0-1.776-1.442-3.215-3.223-3.215H28.748c-1.78 0-3.223 1.439-3.223 3.215v4.977H90.66z"/>
        <path fill="#CECAE0" d="M25.525 52.837v5.354c0 1.776 1.443 3.216 3.223 3.216h58.69c1.78 0 3.223-1.44 3.223-3.216v-5.354H25.525z"/>
        <path fill="#FFA052" d="M101.19 73.77H85.289c-1.187 0-2.149-.959-2.149-2.143V41.834c0-1.184.962-2.144 2.15-2.144h15.902c1.187 0 2.149.96 2.149 2.144v29.793c0 1.184-.962 2.144-2.15 2.144z"/>
        <path fill="#F5F4F9" d="M83.14 60.49v11.137c0 1.184.961 2.144 2.148 2.144h15.903c1.187 0 2.149-.96 2.149-2.144V60.49h-20.2z"/>
        <path fill="#CECAE0" d="M97.33 42.737l.996-3.047H88.154l.995 3.047c.144.442.556.74 1.021.74h6.139c.465 0 .878-.298 1.022-.74z"/>
        <path fill="#F5F4F9" d="M37.606 73.77H8.809c-1.187 0-2.149-.959-2.149-2.143V35.404c0-1.184.962-2.144 2.15-2.144h28.796c1.187 0 2.149.96 2.149 2.144v36.223c0 1.184-.962 2.144-2.15 2.144z"/>
        <path fill="#FDD250" d="M39.755 40.262v-4.858c0-1.184-.962-2.144-2.15-2.144H8.81c-1.187 0-2.149.96-2.149 2.144v4.858h33.095z"/>
        <path fill="#FFBE92" d="M19.018 69.453h-6.66c-.356 0-.645-.287-.645-.642V45.775c0-.355.289-.643.645-.643h6.66c.356 0 .645.288.645.643V68.81c0 .355-.289.642-.645.642zM34.057 53.06H23.315c-.356 0-.645-.287-.645-.642v-6.643c0-.355.289-.643.645-.643h10.742c.356 0 .645.288.645.643v6.643c0 .355-.289.643-.645.643zM34.057 69.453H23.315c-.356 0-.645-.287-.645-.642V56.692c0-.355.289-.643.645-.643h10.742c.356 0 .645.288.645.643v12.119c0 .355-.289.642-.645.642z"/>
        <g fill="#590BB2">
            <path d="M26.432 4.291c-.593 0-1.074.48-1.074 1.072v.024c0 .592.48 1.072 1.074 1.072.594 0 1.074-.48 1.074-1.072v-.024c0-.592-.48-1.072-1.074-1.072zM29.727 4.291c-.593 0-1.074.48-1.074 1.072v.024c0 .592.481 1.072 1.075 1.072.593 0 1.074-.48 1.074-1.072v-.024c0-.592-.481-1.072-1.075-1.072zM33.023 4.291c-.594 0-1.075.48-1.075 1.072v.024c0 .592.481 1.072 1.075 1.072.593 0 1.074-.48 1.074-1.072v-.024c0-.592-.481-1.072-1.074-1.072z" transform="translate(5.586 11.786)"/>
            <path d="M95.605 26.833h-9.456V4.494c0-2.364-1.928-4.287-4.298-4.287H23.162c-2.37 0-4.297 1.923-4.297 4.287v11.079c0 .592.48 1.071 1.074 1.071.593 0 1.074-.48 1.074-1.071v-5.03H84v16.29h-4.298c-1.777 0-3.223 1.442-3.223 3.215v5.102c0 .591.48 1.07 1.074 1.07.594 0 1.074-.479 1.074-1.07v-5.102c0-.591.483-1.072 1.075-1.072h2.086l.753 2.308c.29.884 1.11 1.479 2.043 1.479h6.139c.933 0 1.754-.594 2.043-1.48l.753-2.307h2.086c.593 0 1.075.481 1.075 1.072v29.794c0 .59-.482 1.072-1.075 1.072H79.702c-.592 0-1.075-.481-1.075-1.072v-18.79c0-.592-.48-1.072-1.074-1.072h-42.31V23.618c0-1.772-1.446-3.215-3.223-3.215H3.223C1.446 20.403 0 21.846 0 23.618v36.224c0 1.772 1.446 3.215 3.223 3.215H32.02c1.777 0 3.223-1.443 3.223-3.215v-9.15h9.343L42 60.915h-2.44c-.594 0-1.075.48-1.075 1.071 0 .592.48 1.072 1.074 1.072h25.896c.593 0 1.074-.48 1.074-1.072 0-.591-.481-1.071-1.074-1.071h-2.44l-2.587-10.221H76.48v9.149c0 1.772 1.446 3.215 3.224 3.215h15.902c1.777 0 3.223-1.443 3.223-3.215V30.048c0-1.772-1.446-3.215-3.223-3.215zM21.013 8.4V4.494c0-1.182.964-2.144 2.15-2.144H81.85c1.186 0 2.15.962 2.15 2.144V8.4H21.013zm69.71 22.22h-6.14l-.536-1.644h7.213l-.537 1.644zm-87.5-8.074H32.02c.592 0 1.075.48 1.075 1.072v3.787H2.148v-3.787c0-.591.483-1.072 1.075-1.072zm29.872 37.296c0 .59-.483 1.072-1.075 1.072H3.223c-.592 0-1.075-.481-1.075-1.072V29.548h30.947v30.294zm27.703 1.072H44.215l2.586-10.222h11.412l2.585 10.222zM35.243 48.549v-6.426h41.236v6.426H35.243z" transform="translate(5.586 11.786)"/>
            <path d="M6.698 26.06c.593 0 1.074-.48 1.074-1.072v-.025c0-.591-.481-1.071-1.074-1.071-.594 0-1.075.48-1.075 1.071v.025c0 .591.481 1.071 1.075 1.071zM9.993 26.06c.593 0 1.074-.48 1.074-1.072v-.025c0-.591-.481-1.071-1.074-1.071-.594 0-1.075.48-1.075 1.071v.025c0 .591.481 1.071 1.075 1.071zM13.288 26.06c.593 0 1.074-.48 1.074-1.072v-.025c0-.591-.48-1.071-1.074-1.071-.594 0-1.075.48-1.075 1.071v.025c0 .591.481 1.071 1.075 1.071zM52.013 16.96l.494-.492.494.493c.21.21.485.314.76.314.274 0 .55-.105.759-.314.42-.419.42-1.097 0-1.515l-1.254-1.25c-.419-.419-1.1-.419-1.519 0l-1.253 1.25c-.42.418-.42 1.096 0 1.515.42.418 1.1.418 1.519 0z" transform="translate(5.586 11.786)"/>
        </g>
        <path fill="#FFE783" d="M91.094 68.775h-3.008c-.356 0-.645-.288-.645-.643V49.739c0-.355.289-.643.645-.643h3.008c.356 0 .644.288.644.643v18.393c0 .355-.288.643-.644.643zM85.485 7.015c-.593 0-1.074-.48-1.074-1.072 0-.709-.578-1.285-1.289-1.285-.593 0-1.074-.48-1.074-1.072 0-.591.48-1.071 1.074-1.071.711 0 1.29-.577 1.29-1.286 0-.592.48-1.071 1.073-1.071.594 0 1.075.48 1.075 1.071 0 .71.578 1.286 1.289 1.286.593 0 1.074.48 1.074 1.071 0 .592-.48 1.072-1.074 1.072-.711 0-1.29.576-1.29 1.285 0 .592-.48 1.072-1.074 1.072z"/>
        <path fill="#C182F9" d="M98.326 34.789c-.594 0-1.075-.48-1.075-1.072 0-.709-.578-1.285-1.289-1.285-.593 0-1.074-.48-1.074-1.072 0-.592.48-1.071 1.074-1.071.711 0 1.29-.577 1.29-1.286 0-.592.48-1.072 1.074-1.072.593 0 1.074.48 1.074 1.072 0 .709.578 1.286 1.289 1.286.593 0 1.074.48 1.074 1.071 0 .592-.48 1.072-1.074 1.072-.711 0-1.29.576-1.29 1.285 0 .592-.48 1.072-1.073 1.072z"/>
        <path fill="#FFA052" d="M95.318 11.767c-.275 0-.55-.105-.76-.314l-2.363-2.357c-.42-.418-.42-1.097 0-1.515l2.363-2.357c.42-.419 1.1-.419 1.52 0L98.44 7.58c.42.418.42 1.097 0 1.515l-2.363 2.357c-.21.21-.485.314-.76.314zm-.845-3.429l.845.842.844-.842-.844-.842-.845.842zM15.688 27.286c-.275 0-.55-.104-.76-.313l-2.363-2.358c-.42-.418-.42-1.096 0-1.515l2.364-2.357c.419-.418 1.1-.418 1.519 0L18.81 23.1c.42.419.42 1.097 0 1.515l-2.363 2.358c-.21.209-.485.313-.76.313zm-.844-3.428l.844.842.844-.842-.844-.842-.844.842z"/>
        <ellipse cx="78.06" cy="33.257" fill="#FF8736" rx="1.201" ry="1.198"/>
        <ellipse cx="78.06" cy="29.633" fill="#FF8736" rx="1.201" ry="1.198"/>
        <ellipse cx="78.06" cy="26.009" fill="#FF8736" rx="1.201" ry="1.198"/>
    </g>
</svg>
