<svg xmlns="http://www.w3.org/2000/svg" width="20" height="20" viewBox="0 0 20 20">
    <g fill="#FFF">
        <path d="M10 0C4.477 0 0 4.477 0 10s4.477 10 10 10 10-4.477 10-10S15.523 0 10 0zm0 19.09C4.98 19.09.91 15.02.91 10S4.98.91 10 .91s9.09 4.07 9.09 9.09-4.07 9.09-9.09 9.09z"/>
        <path d="M12.727 5.455H7.273c-1.004 0-1.818.814-1.818 1.818v5.454c0 1.004.814 1.818 1.818 1.818h5.454c1.004 0 1.818-.814 1.818-1.818V7.273c0-1.004-.814-1.818-1.818-1.818zm-.909 1.363h1.364v1.364h-1.364V6.818zM10 8.182c1.004 0 1.818.814 1.818 1.818s-.814 1.818-1.818 1.818S8.182 11.004 8.182 10 8.996 8.182 10 8.182zm3.636 4.545c0 .502-.407.91-.909.91H7.273c-.502 0-.91-.408-.91-.91V9.545h.955c-.273 1.482.707 2.904 2.188 3.177 1.481.273 2.903-.707 3.176-2.188.033-.176.048-.355.045-.534-.002-.153-.017-.305-.045-.455h.954v3.182z"/>
    </g>
</svg>
