<svg xmlns="http://www.w3.org/2000/svg" width="65" height="65" viewBox="0 0 65 65">
    <defs>
        <linearGradient id="prefix__a" x1=".001%" x2="100%" y1="50.027%" y2="50.027%">
            <stop offset="0%" stop-color="#6A11CB"/>
            <stop offset="100%" stop-color="#2575FC"/>
        </linearGradient>
    </defs>
    <g fill="none">
        <path fill="url(#prefix__a)" d="M64.156 32.115c.02 7.928-2.91 15.58-8.222 21.467l-1.165-1.165-6.652-6.677c3.245-3.796 5.015-8.632 4.99-13.625-.23-11.447-9.575-20.607-21.025-20.607-11.449 0-20.794 9.16-21.023 20.607-.007 5 1.791 9.836 5.065 13.616l-7.851 7.85c-9.6-10.627-10.99-26.33-3.41-38.48C12.444 2.95 27.161-2.704 40.926 1.246c13.766 3.95 23.246 16.547 23.23 30.868z"/>
        <path fill="#FFC600" d="M39.211 26.679c.004 2.886-1.732 5.49-4.397 6.596-2.665 1.107-5.735.498-7.777-1.541-2.041-2.04-2.653-5.108-1.55-7.775 1.104-2.666 3.705-4.405 6.591-4.405 3.936 0 7.129 3.188 7.133 7.125z"/>
        <path fill="#22D0B8" d="M55.96 53.607l-1.19 1.199c-6.017 6.018-14.178 9.4-22.688 9.4-8.51 0-16.67-3.382-22.686-9.4l-1.19-1.199L26.54 35.272l1.089.532c2.812 1.362 6.093 1.362 8.905 0l1.09-.532 17.144 17.145 1.19 1.19z"/>
    </g>
</svg>
