<svg xmlns="http://www.w3.org/2000/svg" width="66" height="51" viewBox="0 0 66 51">
    <g fill="none">
        <path fill="#FFBA34" d="M8.125 50.49c-3.021-.042-5.717-1.905-6.825-4.716-1.108-2.811-.408-6.013 1.772-8.105 2.18-2.092 5.408-2.66 8.171-1.437 2.763 1.223 4.514 3.993 4.431 7.013-.139 4.061-3.486 7.273-7.549 7.245z" transform="translate(.575)"/>
        <path fill="#62E198" d="M2.796 13.237c3.298 3.399 6.683 6.737 10.069 10.095 4.784 4.758 9.565 9.525 14.34 14.3 1.558 1.55 3.338 2.533 5.417 2.478 2.072.08 4.08-.734 5.511-2.234 3.657-3.65 7.293-7.32 10.97-10.948l.859-.847c4.275-4.22 8.563-8.418 12.865-12.593 1.376-1.394 2.135-3.282 2.105-5.241V8.01c-.031-1.794-.706-3.517-1.902-4.855C60.32.19 55.63-.23 52.792 2.478c-4.72 4.543-9.276 9.202-13.907 13.806-1.05 1.043-2.079 2.092-3.135 3.128-1.91 1.876-4.063 1.876-5.938 0-4.8-4.807-9.58-9.621-14.402-14.402-1.106-1.23-2.346-2.334-3.696-3.29C8.552-.158 4.487.614 2.234 3.52-.06 6.437.18 10.607 2.796 13.238z" transform="translate(.575)"/>
        <path fill="#2DD876" d="M49.982 42.73v.522c.17 4.061 3.55 7.245 7.614 7.173 4.064-.072 7.33-3.372 7.357-7.437V8.247c.03 1.959-.73 3.847-2.106 5.24-4.306 4.185-8.595 8.383-12.865 12.594v16.65z" transform="translate(.575)"/>
    </g>
</svg>
