<svg xmlns="http://www.w3.org/2000/svg" width="208" height="44" viewBox="0 0 208 44">
    <defs>
        <linearGradient id="prefix__a" x1="125.373%" x2="24.752%" y1="68.378%" y2="46.981%">
            <stop offset="0%" stop-color="#003C93"/>
            <stop offset="100%" stop-color="#F848FF"/>
        </linearGradient>
        <linearGradient id="prefix__b" x1="99.876%" x2="-5.217%" y1="63.135%" y2="39.631%">
            <stop offset="0%" stop-color="#00E3F9"/>
            <stop offset="100%" stop-color="#BB00C4"/>
        </linearGradient>
        <linearGradient id="prefix__c" x1="90.137%" x2="-17.848%" y1="51.061%" y2="46.542%">
            <stop offset="0%" stop-color="#003C93"/>
            <stop offset="100%" stop-color="#F848FF"/>
        </linearGradient>
    </defs>
    <g fill="none">
        <path fill="url(#prefix__a)" d="M22.948 26.349c-8.388 2.801-14.454-3.87-15.34-11.827 1.641-2.147 5.042 1.329 5.042 1.329-.094 2.53 4.274 6.268 6.364 6.396l.08.085c1.247 1.31 2.525 2.658 3.802 3.969l.052.048z"/>
        <path fill="url(#prefix__b)" d="M48.79 26.829c-2.557 7.742-10.204 11.99-17.451 7.056-2.556-1.743-5.473-4.552-8.391-7.536l-.046-.048-3.802-3.97-.081-.084c-2.297-2.414-4.482-4.7-6.369-6.396 0 0-3.406-3.483-5.047-1.33-.09-.55-.495-3.365 1.177-4.89 2.145-1.95 6.07-.404 7.201.221 1.615.893 3.023 1.923 5.515 4.243 1.868 1.74 3.33 3.272 4.325 4.356l.896.896.647.647.734.734.339.339.71.707.091.092c.493.438 4.934 5.51 6.767 6.217l.194.079h.011c.103.04.206.077.306.11 4.09 1.478 8.546 1.907 12.275-1.443z"/>
        <path fill="url(#prefix__c)" d="M48.79 26.829c-3.728 3.35-8.184 2.92-12.283 1.448 5.78 1.845 8.81-11.93 3.713-13.759-.421-.15-.877-.173-1.311-.068-3.832.899-6.701 5.03-9.68 7.416l-.092-.091-.71-.708-.338-.34-.734-.733-.647-.647-.893-.9C29.957 14.324 36.24 6.164 43.3 8.364c7.117 2.57 7.568 12.296 5.49 18.465z"/>
        <path fill="#220F3E" d="M85.25 33.884h-5.133V22.049c.002-.345-.069-.686-.208-1.002-.13-.304-.317-.58-.55-.814-.603-.606-1.468-.87-2.307-.707-.84.163-1.542.733-1.874 1.52-.132.318-.199.66-.197 1.003v11.835H69.85V22.049c.007-.682-.26-1.34-.744-1.823-.483-.483-1.14-.75-1.823-.743-.682-.007-1.339.262-1.822.744-.482.483-.75 1.14-.744 1.822v11.835h-5.134V22.049c-.006-1.03.198-2.05.6-2.999.776-1.851 2.248-3.323 4.1-4.1 2.749-1.169 5.928-.626 8.134 1.389 2.206-2.002 5.373-2.543 8.12-1.388 1.85.776 3.323 2.248 4.099 4.1.408.946.617 1.967.614 2.998v11.835zM107.617 24.134c.02 2.607-1.013 5.112-2.866 6.947-1.85 1.81-4.34 2.818-6.928 2.803-1.306.008-2.6-.247-3.804-.75-1.16-.482-2.217-1.179-3.117-2.053-1.858-1.832-2.895-4.338-2.873-6.947-.012-1.339.25-2.666.77-3.9.49-1.16 1.204-2.213 2.103-3.096 1.852-1.8 4.338-2.802 6.921-2.787 1.307-.01 2.604.227 3.823.699 1.159.446 2.217 1.12 3.11 1.983.9.88 1.612 1.93 2.096 3.09.525 1.27.785 2.636.765 4.011zm-4.925 0c.01-.706-.12-1.406-.385-2.06-.24-.594-.596-1.133-1.047-1.588-.44-.443-.968-.79-1.549-1.02-1.214-.471-2.562-.471-3.776 0-.58.228-1.104.575-1.54 1.02-.445.456-.796.995-1.03 1.587-.26.656-.387 1.356-.376 2.061-.007.68.12 1.355.375 1.985.239.59.589 1.13 1.03 1.588.44.45.963.81 1.54 1.06.596.26 1.24.393 1.889.389.647.002 1.289-.122 1.888-.367.58-.233 1.106-.579 1.55-1.018.452-.453.808-.993 1.046-1.587.264-.651.397-1.348.39-2.05h-.005zM128.517 21.681c-.12-.534-.288-1.055-.503-1.558-.963-2.334-2.844-4.168-5.2-5.073-1.222-.474-2.521-.712-3.83-.7-2.584-.014-5.069.986-6.921 2.786-.9.884-1.614 1.937-2.103 3.099-.52 1.233-.783 2.56-.77 3.899-.01 1.323.252 2.633.77 3.85.49 1.158 1.205 2.207 2.103 3.087.9.876 1.957 1.572 3.116 2.054 2.444 1.002 5.185 1.002 7.629 0 1.006-.421 1.935-1.006 2.75-1.731l-3.396-3.395c-.388.329-.826.595-1.298.786-.599.245-1.24.37-1.888.367-.65.003-1.294-.13-1.89-.389-.995-.437-1.813-1.198-2.32-2.16h13.723c.202-.807.303-1.637.3-2.469.002-.825-.09-1.648-.272-2.453zm-13.805 0c.218-.441.506-.845.85-1.197.436-.443.96-.79 1.538-1.018 1.216-.471 2.564-.471 3.779 0 .58.23 1.108.576 1.55 1.018.347.352.638.756.863 1.197h-8.58zM150.126 24.143c.017 1.36-.245 2.71-.77 3.966-.969 2.33-2.848 4.163-5.201 5.074-1.217.478-2.515.718-3.822.708-1.304.008-2.596-.238-3.805-.724-1.16-.464-2.218-1.149-3.116-2.017-.9-.875-1.614-1.922-2.103-3.078-.524-1.24-.786-2.575-.77-3.921V5.883h4.904V16.35c.276-.333.6-.623.959-.862.38-.255.788-.464 1.217-.621.44-.16.891-.283 1.351-.367.449-.084.904-.127 1.36-.129 1.31-.009 2.61.24 3.823.734 1.163.47 2.223 1.164 3.117 2.044 1.86 1.85 2.893 4.375 2.863 7l-.007-.006zm-4.922 0c.006-.683-.125-1.36-.385-1.99-.243-.596-.6-1.137-1.049-1.596-.906-.921-2.145-1.437-3.438-1.432-.653-.003-1.298.142-1.888.424-1.174.551-2.1 1.523-2.594 2.722-.246.594-.37 1.23-.367 1.872-.01.678.115 1.352.367 1.982.48 1.19 1.41 2.14 2.587 2.647 1.207.516 2.572.516 3.778 0 .58-.25 1.105-.611 1.548-1.061.448-.457.804-.995 1.048-1.586.262-.628.394-1.302.389-1.982h.004zM158.594 9.141c.004.437-.084.87-.258 1.27-.168.386-.408.736-.708 1.03-.303.296-.658.532-1.047.7-.82.346-1.746.346-2.566 0-.78-.331-1.403-.95-1.736-1.73-.348-.808-.348-1.724 0-2.533.164-.387.401-.74.698-1.038.299-.296.65-.533 1.038-.698.82-.347 1.746-.347 2.566 0 .389.167.744.403 1.047.698.302.299.542.653.708 1.043.171.398.259.826.258 1.258zm-.841 24.75h-4.923v-19.54h4.923v19.54zM175.567 31.288c-.4.362-.82.7-1.261 1.012-.445.313-.915.589-1.406.823-.486.23-.993.414-1.513.55-.517.136-1.049.205-1.584.205-1.142.01-2.275-.2-3.336-.621-2.098-.828-3.756-2.492-4.575-4.593-.462-1.183-.69-2.444-.67-3.714V14.35h4.878V24.95c-.01.589.09 1.174.295 1.727.178.476.45.913.798 1.283.33.343.729.611 1.171.787.46.181.95.273 1.443.27.496 0 .984-.12 1.423-.351.445-.23.843-.54 1.173-.917.335-.384.601-.823.787-1.298.19-.475.287-.982.287-1.494V14.351h4.888v19.533h-.829l-1.969-2.596zM192.612 33.884H181.44v-4.97h11.172c.325.003.637-.13.86-.367.237-.23.369-.548.366-.878 0-.352-.119-.585-.366-.693-.272-.117-.565-.173-.86-.165h-5.084c-.82.006-1.633-.162-2.383-.494-.726-.318-1.383-.775-1.935-1.343-.552-.574-.993-1.246-1.298-1.982-.97-2.333-.459-5.02 1.298-6.835.553-.562 1.21-1.012 1.935-1.323.752-.326 1.564-.49 2.383-.485h9.9v4.97h-9.9c-.325-.004-.638.13-.86.367-.237.23-.37.547-.367.877-.004.339.128.665.367.905.222.24.534.373.86.367h5.084c.807-.005 1.609.14 2.363.429.716.271 1.372.678 1.934 1.197 1.159 1.088 1.808 2.613 1.79 4.202.006.832-.158 1.656-.483 2.422-.311.732-.754 1.4-1.307 1.973-.55.567-1.208 1.02-1.934 1.334-.745.327-1.55.494-2.363.492z"/>
    </g>
</svg>
