<svg xmlns="http://www.w3.org/2000/svg" width="208" height="44" viewBox="0 0 208 44">
    <g fill="none">
        <path fill="#FFF" d="M85.593 33.884h-5.154V22.049c.002-.345-.069-.686-.208-1.002-.131-.304-.319-.58-.552-.814-.606-.606-1.475-.87-2.317-.707-.843.163-1.548.733-1.882 1.52-.132.318-.2.66-.197 1.003v11.835h-5.152V22.049c.007-.682-.262-1.34-.747-1.823-.484-.483-1.144-.75-1.83-.743-.685-.007-1.345.262-1.83.744-.484.483-.753 1.14-.747 1.822v11.835h-5.154V22.049c-.007-1.03.198-2.05.602-2.999.779-1.851 2.257-3.323 4.116-4.1 2.76-1.169 5.952-.626 8.167 1.389 2.216-2.002 5.395-2.543 8.152-1.388 1.86.776 3.337 2.248 4.116 4.1.41.946.62 1.967.617 2.998v11.835zM108.05 24.134c.02 2.607-1.018 5.112-2.877 6.947-1.857 1.81-4.357 2.818-6.957 2.803-1.31.008-2.61-.247-3.819-.75-1.164-.482-2.225-1.179-3.13-2.053-1.865-1.832-2.906-4.338-2.884-6.947-.012-1.339.25-2.666.774-3.9.49-1.16 1.208-2.213 2.11-3.096 1.86-1.8 4.356-2.802 6.95-2.787 1.312-.01 2.614.227 3.837.699 1.164.446 2.227 1.12 3.124 1.983.902.88 1.618 1.93 2.104 3.09.527 1.27.788 2.636.768 4.011zm-4.945 0c.01-.706-.12-1.406-.386-2.06-.242-.594-.6-1.133-1.051-1.588-.443-.443-.972-.79-1.556-1.02-1.22-.471-2.572-.471-3.791 0-.582.228-1.109.575-1.547 1.02-.446.456-.798.995-1.034 1.587-.26.656-.388 1.356-.377 2.061-.007.68.121 1.355.377 1.985.24.59.59 1.13 1.034 1.588.441.45.966.81 1.547 1.06.597.26 1.243.393 1.895.389.65.002 1.295-.122 1.896-.367.582-.233 1.11-.579 1.556-1.018.454-.453.812-.993 1.05-1.587.266-.651.4-1.348.393-2.05h-.006zM129.034 21.681c-.12-.534-.29-1.055-.505-1.558-.967-2.334-2.855-4.168-5.222-5.073-1.225-.474-2.53-.712-3.845-.7-2.593-.014-5.089.986-6.949 2.786-.902.884-1.62 1.937-2.111 3.099-.523 1.233-.786 2.56-.773 3.899-.01 1.323.253 2.633.773 3.85.492 1.158 1.21 2.207 2.111 3.087.904.876 1.966 1.572 3.13 2.054 2.453 1.002 5.205 1.002 7.659 0 1.01-.421 1.943-1.006 2.76-1.731l-3.408-3.395c-.39.329-.83.595-1.303.786-.602.245-1.246.37-1.896.367-.653.003-1.3-.13-1.898-.389-1-.437-1.82-1.198-2.329-2.16h13.778c.203-.807.304-1.637.3-2.469.003-.825-.088-1.648-.272-2.453zm-13.86 0c.219-.441.507-.845.853-1.197.438-.443.964-.79 1.545-1.018 1.22-.471 2.573-.471 3.793 0 .583.23 1.112.576 1.556 1.018.349.352.641.756.867 1.197h-8.615zM150.73 24.143c.017 1.36-.246 2.71-.773 3.966-.973 2.33-2.86 4.163-5.222 5.074-1.223.478-2.525.718-3.838.708-1.308.008-2.606-.238-3.82-.724-1.164-.464-2.227-1.149-3.129-2.017-.902-.875-1.62-1.922-2.111-3.078-.526-1.24-.789-2.575-.773-3.921V5.883h4.924V16.35c.277-.333.601-.623.963-.862.38-.255.79-.464 1.222-.621.44-.16.895-.283 1.356-.367.45-.084.908-.127 1.366-.129 1.315-.009 2.62.24 3.838.734 1.168.47 2.231 1.164 3.13 2.044 1.867 1.85 2.904 4.375 2.874 7l-.007-.006zm-4.942 0c.006-.683-.126-1.36-.387-1.99-.244-.596-.601-1.137-1.053-1.596-.91-.921-2.154-1.437-3.451-1.432-.656-.003-1.304.142-1.896.424-1.18.551-2.108 1.523-2.605 2.722-.246.594-.371 1.23-.368 1.872-.01.678.116 1.352.368 1.982.482 1.19 1.415 2.14 2.598 2.647 1.211.516 2.582.516 3.793 0 .582-.25 1.11-.611 1.554-1.061.45-.457.807-.995 1.053-1.586.262-.628.395-1.302.39-1.982h.004zM159.232 9.141c.004.437-.085.87-.26 1.27-.168.386-.409.736-.71 1.03-.304.296-.66.532-1.05.7-.825.346-1.754.346-2.578 0-.783-.331-1.408-.95-1.743-1.73-.349-.808-.349-1.724 0-2.533.165-.387.403-.74.701-1.038.3-.296.654-.533 1.042-.698.824-.347 1.753-.347 2.577 0 .39.167.747.403 1.051.698.303.299.544.653.71 1.043.173.398.26.826.26 1.258zm-.845 24.75h-4.942v-19.54h4.942v19.54zM176.274 31.288c-.402.362-.825.7-1.267 1.012-.446.313-.918.589-1.412.823-.488.23-.996.414-1.518.55-.52.136-1.054.205-1.59.205-1.147.01-2.285-.2-3.35-.621-2.107-.828-3.771-2.492-4.593-4.593-.464-1.183-.693-2.444-.674-3.714V14.35h4.898V24.95c-.01.589.091 1.174.296 1.727.179.476.451.913.801 1.283.331.343.732.611 1.176.787.461.181.953.273 1.45.27.497 0 .987-.12 1.427-.351.447-.23.847-.54 1.178-.917.337-.384.604-.823.79-1.298.19-.475.289-.982.29-1.494V14.351h4.906v19.533h-.832l-1.976-2.596zM193.387 33.884h-11.218v-4.97h11.218c.326.003.64-.13.863-.367.238-.23.37-.548.368-.878 0-.352-.12-.585-.368-.693-.273-.117-.567-.173-.863-.165h-5.105c-.823.006-1.639-.162-2.393-.494-.728-.318-1.387-.775-1.942-1.343-.555-.574-.997-1.246-1.303-1.982-.973-2.333-.461-5.02 1.303-6.835.555-.562 1.215-1.012 1.942-1.323.756-.326 1.57-.49 2.393-.485h9.94v4.97h-9.94c-.326-.004-.64.13-.863.367-.238.23-.37.547-.368.877-.004.339.128.665.368.905.222.24.536.373.863.367h5.105c.81-.005 1.615.14 2.372.429.719.271 1.378.678 1.942 1.197 1.164 1.088 1.815 2.613 1.797 4.202.006.832-.159 1.656-.484 2.422-.313.732-.758 1.4-1.313 1.973-.553.567-1.213 1.02-1.942 1.334-.748.327-1.556.494-2.372.492z"/>
        <path fill="#E6E6E6" d="M23.04 26.349C14.62 29.15 8.528 22.479 7.64 14.522 9.286 12.375 12.7 15.85 12.7 15.85c-.094 2.53 4.29 6.268 6.389 6.396l.081.085c1.252 1.31 2.535 2.658 3.818 3.969l.051.048z"/>
        <path fill="#FFF" d="M48.987 26.829c-2.568 7.742-10.246 11.99-17.522 7.056-2.566-1.743-5.494-4.552-8.425-7.536l-.046-.048-3.818-3.97-.08-.084c-2.307-2.414-4.501-4.7-6.395-6.396 0 0-3.42-3.483-5.068-1.33-.09-.55-.497-3.365 1.182-4.89 2.154-1.95 6.095-.404 7.23.221 1.622.893 3.036 1.923 5.537 4.243 1.876 1.74 3.343 3.272 4.343 4.356l.9.896.65.647.736.734.34.339.713.707.092.092c.495.438 4.953 5.51 6.794 6.217l.195.079h.01c.104.04.207.077.308.11 4.107 1.478 8.58 1.907 12.324-1.443z"/>
        <path fill="#E6E6E6" d="M48.987 26.829c-3.744 3.35-8.217 2.92-12.333 1.448 5.804 1.845 8.845-11.93 3.727-13.759-.422-.15-.88-.173-1.316-.068-3.847.899-6.727 5.03-9.719 7.416l-.092-.091-.712-.708-.34-.34-.737-.733-.65-.647-.896-.9c4.158-4.123 10.466-12.283 17.555-10.083 7.145 2.57 7.598 12.296 5.513 18.465z"/>
    </g>
</svg>
