<svg xmlns="http://www.w3.org/2000/svg" width="56" height="65" viewBox="0 0 56 65">
    <defs>
        <linearGradient id="prefix__a" x1="35.516%" x2="64.502%" y1="-6.967%" y2="93.293%">
            <stop offset="0%" stop-color="#00C6FB"/>
            <stop offset="100%" stop-color="#005BEA"/>
        </linearGradient>
    </defs>
    <path fill="url(#prefix__a)" d="M35.277 0H7.493v.015H0C0 9.5 7.689 17.19 17.174 17.19h17.648c1.031.07 1.832.927 1.832 1.96 0 1.034-.801 1.89-1.832 1.96h-7.114c-9.937 0-18.232 7.583-19.122 17.48-.05.565-.076 1.14-.076 1.719 0 .579.026 1.154.076 1.72V65h10.675c3.59 0 6.5-2.91 6.5-6.5V39.907c0-.835.677-1.512 1.512-1.512h8.011c9.835-.003 18.077-7.439 19.09-17.222.067-.656.1-1.315.1-1.975C54.475 8.595 45.88 0 35.278 0z" transform="translate(.005)"/>
</svg>
